<svg width="385" height="251" viewBox="0 0 385 251" fill="none" xmlns="http://www.w3.org/2000/svg">
<g clip-path="url(#clip0_123_1648)">
<path d="M106.144 107.33C102.521 107.33 99.5832 110.202 99.5832 113.746C99.5832 117.289 102.521 120.162 106.144 120.162C109.768 120.162 112.705 117.289 112.705 113.746C112.705 110.202 109.768 107.33 106.144 107.33Z" fill="#0B132B"/>
<path d="M275.784 106.333C274.375 106.333 273.233 105.215 273.233 103.837C273.233 102.459 274.375 101.342 275.784 101.342C277.194 101.342 278.336 102.459 278.336 103.837C278.336 105.215 277.194 106.333 275.784 106.333Z" fill="#0B132B"/>
<path d="M116.009 66.9905C114.018 66.9905 112.403 65.4114 112.403 63.4635C112.403 61.5156 114.018 59.9365 116.009 59.9365C118.001 59.9365 119.616 61.5156 119.616 63.4635C119.616 65.4114 118.001 66.9905 116.009 66.9905Z" fill="#E1E4E5"/>
<path d="M91.2459 90.755L102.263 55.3548L115.117 46.1196L175.712 49.4546L201.681 76.6462H258.079C259.968 76.6462 278.802 80.0665 287.983 81.7767L297.427 118.973L291.393 158.478L287.983 186.696L273.031 202.857L201.681 206.961C179.734 206.533 134.318 205.935 128.232 206.961C122.147 207.987 104.187 193.878 95.9677 186.696C95.4428 175.066 93.7642 151.346 91.2459 149.499C88.7275 147.652 90.1965 109.567 91.2459 90.755Z" fill="#0B132B"/>
<path fill-rule="evenodd" clip-rule="evenodd" d="M191.161 85.8345L179.309 66.5167C176.301 61.6147 171.758 58.8114 167.216 58.245C158.466 57.1544 147.558 56.1709 136.889 56.1709C129.475 56.1709 121.91 56.6465 114.995 57.3121C108.629 57.925 103.929 62.5496 103.422 69.0175C102.407 81.9645 101.5 100.495 101.5 125.386C101.5 142.913 102.153 158.526 102.982 171.282C103.756 183.189 112.989 192.176 125.259 192.868C141.909 193.807 164.322 194.601 192.5 194.601C220.678 194.601 243.091 193.807 259.741 192.868C272.011 192.176 281.244 183.189 282.018 171.282C283.006 156.002 283.5 140.696 283.5 125.386C283.5 115.833 282.934 106.764 282.184 98.9647C281.566 92.5278 276.656 87.7254 270.073 87.1209C262.098 86.3879 252.824 85.8345 243.056 85.8345H191.161ZM202.611 66.0586L196.649 56.342C190.787 46.7864 181.077 40.0374 169.773 38.6281C160.536 37.4768 148.713 36.395 136.889 36.395C128.637 36.395 120.386 36.9221 113.014 37.6316C96.765 39.1958 84.5079 51.5847 83.2592 67.5052C82.2013 80.9902 81.2778 100.026 81.2778 125.386C81.2778 143.387 81.9481 159.422 82.8002 172.536C84.2256 194.465 101.663 211.346 124.095 212.611C141.132 213.571 163.933 214.377 192.5 214.377C221.067 214.377 243.868 213.571 260.905 212.611C283.337 211.346 300.774 194.465 302.2 172.536C303.215 156.839 303.722 141.114 303.722 125.386C303.722 115.091 303.114 105.392 302.318 97.1148C300.791 81.2182 288.22 68.925 271.965 67.4316C263.501 66.6539 253.582 66.0586 243.056 66.0586H202.611Z" fill="#0B132B"/>
<path d="M192.457 178.544C215.822 178.544 234.764 160.021 234.764 137.171C234.764 114.322 215.822 95.7983 192.457 95.7983C169.091 95.7983 150.15 114.322 150.15 137.171C150.15 160.021 169.091 178.544 192.457 178.544Z" fill="white"/>
<path d="M196.778 119.225C196.778 116.914 194.863 115.042 192.5 115.042C190.137 115.042 188.222 116.914 188.222 119.225V155.202C188.222 157.512 190.137 159.385 192.5 159.385C194.863 159.385 196.778 157.512 196.778 155.202V119.225Z" fill="#0B132B"/>
<path d="M210.894 141.396C213.257 141.396 215.172 139.524 215.172 137.213C215.172 134.903 213.257 133.03 210.894 133.03H174.106C171.743 133.03 169.828 134.903 169.828 137.213C169.828 139.524 171.743 141.396 174.106 141.396H210.894Z" fill="#0B132B"/>
</g>
<defs>
<clipPath id="clip0_123_1648">
<rect width="385" height="251" fill="white"/>
</clipPath>
</defs>
</svg>
