<svg width="50" height="50" viewBox="0 0 50 50" fill="none" xmlns="http://www.w3.org/2000/svg">
<path d="M27.0833 6.24998C35.1666 6.24998 41.6666 12.7916 41.6666 20.8333C41.6666 26.6666 38.2708 31.6458 33.3333 33.9791V43.75H18.75V37.5H16.6666C14.3541 37.5 12.5 35.6458 12.5 33.3333V27.0833H9.37497C8.49997 27.0833 7.99997 26.0416 8.49997 25.3958L12.5 20.125C12.8958 12.3958 19.2291 6.24998 27.0833 6.24998ZM27.0833 2.08331C17.5208 2.08331 9.60414 9.20831 8.4583 18.5416L5.20831 22.9166H5.14581L5.10414 22.9791C3.95831 24.5625 3.81247 26.6458 4.7083 28.375C5.45831 29.8125 6.79164 30.8125 8.3333 31.125V33.3333C8.3333 37.1875 11 40.4583 14.5833 41.3958V47.9166H37.5V36.4583C42.7083 32.9791 45.8333 27.2083 45.8333 20.8333C45.8333 10.4791 37.4166 2.08331 27.0833 2.08331ZM36.1041 19.375L32.0208 20.4375L35.0208 23.4791C35.75 24.1875 35.75 25.3958 35.0208 26.125C34.2916 26.8541 33.0833 26.8541 32.375 26.125L29.3541 23.125L28.2708 27.2083C28.0208 28.2291 27 28.7916 26.0416 28.5416C25 28.2708 24.4166 27.25 24.6666 26.2291L25.7708 22.1458L21.6875 23.25C20.6666 23.5 19.6458 22.9166 19.375 21.875C19.125 20.9375 19.7083 19.8958 20.7083 19.6458L24.7916 18.5625L21.7916 15.5416C21.0625 14.8333 21.0625 13.6458 21.7916 12.8958C22.5208 12.1666 23.7291 12.1666 24.4375 12.8958L27.4791 15.8958L28.5416 11.8125C28.7916 10.7916 29.8333 10.2083 30.8125 10.4791C31.8333 10.75 32.4166 11.7708 32.1458 12.7708L31.0416 16.875L35.1458 15.7708C36.1458 15.5 37.1666 16.0833 37.4375 17.1041C37.7083 18.0833 37.125 19.125 36.1041 19.375Z" fill="#0B132B" fill-opacity="0.9"/>
</svg>